# xmcd CD database file
#
# Track frame offsets:
#	150
#	22355
#	28735
#	35802
#	45135
#	56015
#	70305
#	79267
#	87510
#	96980
#	108330
#	121212
#	136345
#	152712
#	167532
#	182747
#	205042
#	220777
#	236235
#	251765
#
# Disc length: 3535 seconds
#
# Revision: 0
# Processed by: cddbd v1.5.2PL0 Copyright (c) Steve Scherf et al.
# Submitted via: CDex 2.12
#
DISCID=1d0dcd14
DTITLE=Various Artist - Welcome To Jazzland
DYEAR=1994
DGENRE=Jazz
TTITLE0=Giampiero Boneschi Big Band - Welcome to Jazzland
TTITLE1=Giampiero Boneschi Big Band - Jazz Reply
TTITLE2=Giampiero Boneschi Big Band - Manhattan Show
TTITLE3=Giampiero Boneschi Big Band - Hurry for Terry
TTITLE4=Giampiero Boneschi Big Band - Dreamood
TTITLE5=Giampiero Boneschi Big Band - Young Soul Beat
TTITLE6=Giampiero Boneschi Big Band - Florida Way
TTITLE7=Giampiero Boneschi Big Band - It's Time To Go
TTITLE8=Giampiero Boneschi Big Band - First Class Girl
TTITLE9=Giampiero Boneschi Big Band - Memory Far
TTITLE10=Giampiero Boneschi Big Band - Love Is A Clarinet
TTITLE11=Giampiero Boneschi Big Band - Action Group
TTITLE12=Minus Jazz Friends - City Hall Jazz
TTITLE13=Minus Jazz Friends - Blues Line
TTITLE14=Minus Jazz Friends - Mr. Clarinet
TTITLE15=Minus Jazz Friends - Relaxing Mood
TTITLE16=Minus Jazz Friends - Spirit Of Jam
TTITLE17=Minus Jazz Friends - Velvet Tune
TTITLE18=Minus Jazz Friends - Warm Touch
TTITLE19=Minus Jazz Friends - Day Clarinet
EXTD=YEAR: 1994
EXTT0=
EXTT1=
EXTT2=
EXTT3=
EXTT4=
EXTT5=
EXTT6=
EXTT7=
EXTT8=
EXTT9=
EXTT10=
EXTT11=
EXTT12=
EXTT13=
EXTT14=
EXTT15=
EXTT16=
EXTT17=
EXTT18=
EXTT19=
PLAYORDER=
